<svg xmlns="http://www.w3.org/2000/svg" viewBox="0 0 626.14 467.8"><defs><style>.cls-1{isolation:isolate}.cls-10,.cls-2{fill:#fff}.cls-12,.cls-13,.cls-3{fill:none}.cls-10,.cls-11,.cls-12,.cls-13,.cls-15,.cls-3,.cls-6,.cls-8{stroke:#000}.cls-10,.cls-11,.cls-13,.cls-15,.cls-3,.cls-6,.cls-8{stroke-miterlimit:10}.cls-14,.cls-4{mix-blend-mode:multiply}.cls-14,.cls-5{fill:#e6e6e6}.cls-6,.cls-9{fill:#dd0031}.cls-15,.cls-7{fill:#3c9ae2}.cls-8{fill:#d8ebf9}.cls-11{fill:#ffedf1}.cls-12,.cls-13{stroke-linecap:round}.cls-12{stroke-linejoin:round;stroke-width:2px}.cls-13{stroke-dasharray:4 4}</style></defs><g class="cls-1"><g id="Layer_1" data-name="Layer 1"><circle cx="200.57" cy="222.31" r="94.38" class="cls-2" transform="translate(-81.57 322.53) rotate(-67.5)"/><path d="M200.57,128.43a93.88,93.88,0,1,1-93.88,93.88,94,94,0,0,1,93.88-93.88m0-1a94.88,94.88,0,1,0,94.87,94.88,94.88,94.88,0,0,0-94.87-94.88Z"/><path d="M200.57,316.68c-32.47,0-58.89-42.34-58.89-94.37s26.42-94.38,58.89-94.38,58.89,42.34,58.89,94.38S233,316.68,200.57,316.68Z" class="cls-2"/><path d="M200.57,128.43c32.19,0,58.39,42.11,58.39,93.88s-26.2,93.87-58.39,93.87-58.39-42.11-58.39-93.87,26.19-93.88,58.39-93.88m0-1c-32.8,0-59.39,42.48-59.39,94.88s26.59,94.87,59.39,94.87S260,274.7,260,222.31s-26.59-94.88-59.39-94.88Z"/><path d="M272.52,160.47C255.15,170.62,229.89,177,201.78,177c-29,0-54.93-6.79-72.33-17.49" class="cls-3"/><path d="M130.54,285.65c17.39-10.32,42.86-16.84,71.24-16.84,27.74,0,52.69,6.22,70,16.14" class="cls-3"/><line x1="106.31" x2="294.96" y1="222.31" y2="222.31" class="cls-3"/><line x1="201.78" x2="201.78" y1="316.93" y2="127.82" class="cls-3"/><g class="cls-4"><path d="M162.69,150.91a23.75,23.75,0,1,0-44.47,11.54h0l.11.2,0,0,18.06,32.66a2.91,2.91,0,0,0,5.1,0l18.19-32.9h0A23.58,23.58,0,0,0,162.69,150.91Z" class="cls-5"/><circle cx="133.95" cy="151.87" r="8.27" class="cls-5"/></g><path d="M153.19,148.41A23.75,23.75,0,1,0,108.72,160h0l.11.2,0,0,18.06,32.66a2.91,2.91,0,0,0,5.1,0L150.19,160h0A23.58,23.58,0,0,0,153.19,148.41Zm-23.74,9.23a8.27,8.27,0,1,1,8.27-8.27A8.27,8.27,0,0,1,129.45,157.64Z" class="cls-6"/><rect width="43.18" height="27.76" x="313.96" y="349.73" class="cls-7"/><path d="M356.64,350.23V377H314.46V350.23h42.18m1-1H313.46V378h44.18V349.23Z"/><rect width="97.49" height="6.19" x="286.8" y="376.25" class="cls-7"/><path d="M383.79,376.75v5.19H287.31v-5.19h96.48m1-1H286.31v7.19h98.48v-7.19Z"/><g class="cls-4"><rect width="240.88" height="148.32" x="222.61" y="211.31" class="cls-5" rx="8.68"/><rect width="221.45" height="130.79" x="232.32" y="220.07" class="cls-5" rx="7.82"/><path d="M232.32,232.37v-7.18a5.12,5.12,0,0,1,5.12-5.12H448.52a5.11,5.11,0,0,1,5.11,5l.15,7.28Z" class="cls-5"/><circle cx="241.9" cy="226.22" r="2.21" class="cls-5"/><circle cx="250.32" cy="226.22" r="2.21" class="cls-5"/><circle cx="258.74" cy="226.22" r="2.21" class="cls-5"/><rect width="58.22" height="2.77" x="255.77" y="326.72" class="cls-5"/><rect width="75.19" height="2.77" x="255.77" y="317.61" class="cls-5"/><rect width="58.22" height="2.77" x="363.18" y="326.72" class="cls-5"/><rect width="75.19" height="2.77" x="363.18" y="317.61" class="cls-5"/><rect width="75.19" height="2.77" x="363.18" y="307.9" class="cls-5"/><rect width="75.19" height="2.77" x="363.18" y="298.19" class="cls-5"/><polygon points="288.66 252.32 265.74 260.5 269.23 290.81 288.66 301.57 308.09 290.81 311.59 260.5 288.66 252.32" class="cls-5"/><path d="M288.66,257.76,274.33,289.9h5.34l2.88-7.19h12.17l2.88,7.19h5.34l-14.28-32.14Zm4.19,20.52h-8.37l4.18-10.07Z" class="cls-5"/><rect width="76.5" height="37.73" x="362.97" y="247.74" class="cls-5" rx="3.53"/></g><rect width="239.88" height="147.32" x="215.61" y="204.31" class="cls-7" rx="8.18"/><path d="M447.31,204.81a7.69,7.69,0,0,1,7.68,7.68v131a7.69,7.69,0,0,1-7.68,7.68H223.79a7.69,7.69,0,0,1-7.68-7.68v-131a7.68,7.68,0,0,1,7.68-7.68H447.31m0-1H223.79a8.67,8.67,0,0,0-8.68,8.68v131a8.68,8.68,0,0,0,8.68,8.68H447.31a8.68,8.68,0,0,0,8.68-8.68v-131a8.68,8.68,0,0,0-8.68-8.68Z"/><rect width="220.45" height="129.79" x="225.32" y="213.07" class="cls-2" rx="7.32"/><path d="M438.46,213.57a6.83,6.83,0,0,1,6.82,6.82V335.55a6.82,6.82,0,0,1-6.82,6.81H232.64a6.82,6.82,0,0,1-6.82-6.81V220.39a6.83,6.83,0,0,1,6.82-6.82H438.46m0-1H232.64a7.82,7.82,0,0,0-7.82,7.82V335.55a7.82,7.82,0,0,0,7.82,7.81H438.46a7.82,7.82,0,0,0,7.82-7.81V220.39a7.82,7.82,0,0,0-7.82-7.82Z"/><path d="M225.32,224.87v-7.18a5.12,5.12,0,0,1,5.12-5.12H441.52a5.11,5.11,0,0,1,5.11,5l.15,7.28Z" class="cls-8"/><circle cx="234.4" cy="218.72" r="2.21" class="cls-6"/><circle cx="242.82" cy="218.72" r="2.21" class="cls-6"/><circle cx="251.24" cy="218.72" r="2.21" class="cls-6"/><rect width="57.22" height="1.78" x="248.77" y="319.72" class="cls-2"/><path d="M305.5,320.22V321H249.27v-.78H305.5m1-1H248.27V322H306.5v-2.78Z"/><rect width="74.19" height="1.77" x="248.77" y="310.61" class="cls-2"/><path d="M322.47,311.11v.77h-73.2v-.77h73.2m1-1h-75.2v2.77h75.2v-2.77Z"/><rect width="57.22" height="1.78" x="356.18" y="319.72" class="cls-2"/><path d="M412.9,320.22V321H356.68v-.78H412.9m1-1H355.68V322H413.9v-2.78Z"/><rect width="74.19" height="1.77" x="356.18" y="310.61" class="cls-2"/><path d="M429.88,311.11v.77h-73.2v-.77h73.2m1-1h-75.2v2.77h75.2v-2.77Z"/><rect width="74.19" height="1.78" x="356.18" y="300.9" class="cls-2"/><path d="M429.88,301.4v.77h-73.2v-.77h73.2m1-1h-75.2v2.77h75.2V300.4Z"/><rect width="74.19" height="1.78" x="356.18" y="291.19" class="cls-2"/><path d="M429.88,291.69v.77h-73.2v-.77h73.2m1-1h-75.2v2.77h75.2v-2.77Z"/><polygon points="261.26 283.62 257.69 252.66 281.16 244.29 304.63 252.66 301.06 283.62 281.16 294.64 261.26 283.62" class="cls-9"/><path d="M281.16,244.82,304.09,253l-3.5,30.31-19.43,10.76-19.43-10.76L258.23,253l22.93-8.18m0-1.06-.33.12-22.93,8.18-.75.26.09.79,3.5,30.32.06.51.45.25L280.68,295l.48.27.49-.27,19.43-10.76.45-.25.05-.51,3.5-30.32.09-.79-.75-.26-22.92-8.18-.34-.12Z"/><path d="M289.76,282.9l-2.88-7.19H275.39l-2.88,7.19h-6.45L281.16,249l15,33.87Zm-5.16-12.62L281.16,262l-3.44,8.27Z" class="cls-2"/><path d="M281.16,250.26l14.28,32.14H290.1l-2.88-7.19H275.05l-2.88,7.19h-5.34l14.33-32.14M277,270.78h8.37l-4.19-10.07L277,270.78m4.18-23-.91,2.05L265.92,282l-.63,1.41h7.56l.25-.63,2.63-6.56h10.81l2.63,6.56.25.63H297l-.62-1.41-14.28-32.13-.92-2.05Zm-2.69,22,2.69-6.47,2.69,6.47Z"/><rect width="77.5" height="38.73" x="354.97" y="239.74" class="cls-9" rx="4.03"/><path d="M428.44,240.24a3.53,3.53,0,0,1,3.53,3.53v30.67a3.53,3.53,0,0,1-3.53,3.53H359a3.53,3.53,0,0,1-3.53-3.53V243.77a3.53,3.53,0,0,1,3.53-3.53h69.44m0-1H359a4.53,4.53,0,0,0-4.53,4.53v30.67A4.53,4.53,0,0,0,359,279h69.44a4.53,4.53,0,0,0,4.53-4.53V243.77a4.53,4.53,0,0,0-4.53-4.53Z"/><rect width="13.51" height="13.51" x="451.38" y="115.85" class="cls-8"/><rect width="7.18" height="7.18" x="473.59" y="84.86" class="cls-10"/><g class="cls-4"><rect width="133.33" height="97.34" x="387.11" y="163.86" class="cls-5" rx="8.04"/><polyline points="500.99 249.74 488.27 216.24 475.56 249.74" class="cls-5"/><path d="M431.88,187.36s-4.17,16.85-25.43,24.79" class="cls-5"/><path d="M406.45,187.36s4.17,16.85,25.43,24.79" class="cls-5"/><path d="M419.16,225.35V230A12.94,12.94,0,0,0,432.11,243h20.71" class="cls-5"/><path d="M488.28,205V200.3a12.94,12.94,0,0,0-12.95-12.94H454.62" class="cls-5"/></g><rect width="7.18" height="7.18" x="133.08" y="313.34" class="cls-11"/><rect width="7.18" height="7.18" x="247.65" y="108.94" class="cls-10"/><rect width="13.64" height="13.64" x="106.31" y="352.13" class="cls-8"/><rect width="133.33" height="97.34" x="379.61" y="156.36" class="cls-11" rx="8.04"/><polyline points="493.49 242.24 480.77 208.74 468.06 242.24" class="cls-12"/><line x1="472.79" x2="488.36" y1="230.75" y2="230.75" class="cls-12"/><line x1="391.88" x2="431.45" y1="179.86" y2="179.86" class="cls-12"/><line x1="411.66" x2="411.66" y1="170.05" y2="179.86" class="cls-12"/><path d="M424.38,179.86s-4.17,16.85-25.43,24.79" class="cls-12"/><path d="M399,179.86s4.17,16.85,25.43,24.79" class="cls-12"/><path d="M411.66,217.85v4.68a12.94,12.94,0,0,0,12.95,12.94h20.71" class="cls-13"/><polygon points="444.3 238.96 450.34 235.47 444.3 231.98 444.3 238.96"/><path d="M480.77,197.48V192.8a12.94,12.94,0,0,0-12.94-12.94H447.12" class="cls-13"/><polygon points="448.14 176.37 442.1 179.86 448.14 183.35 448.14 176.37"/><path d="M328.84,92.23s10-10.63,23.05,5.15a1.15,1.15,0,0,1-1.3,1.81c-4.94-1.9-13-4-15.61,1.11" class="cls-6"/><rect width="22.56" height="18.24" x="312.45" y="95.02" class="cls-6" transform="translate(3.04 217.31) rotate(-37.27)"/><rect width="9.12" height="18.24" x="300.7" y="109.08" class="cls-6" transform="translate(-9.25 208.99) rotate(-37.27)"/><path d="M318.25,115.57c-5.9-1.24-5.87,4.47-5.87,4.47L305,110.36s5.49,1.55,5.87-4.47Z" class="cls-6"/><rect width="12.46" height="33.44" x="333.37" y="107.82" class="cls-11" transform="matrix(0.8, -0.61, 0.61, 0.8, -6.07, 231.08)"/><path d="M350.73,132.07h14.86a0,0,0,0,1,0,0v26a7.43,7.43,0,0,1-7.43,7.43h0a7.43,7.43,0,0,1-7.43-7.43v-26A0,0,0,0,1,350.73,132.07Z" class="cls-11" transform="matrix(0.8, -0.61, 0.61, 0.8, -16.96, 247.27)"/><polygon points="353.94 130.98 342.12 139.98 345.85 144.89 357.5 135.65 353.94 130.98" class="cls-14"/><polygon points="334.6 107.59 324.59 114.82 327.25 117.77 337.11 110.35 334.6 107.59" class="cls-14"/><path d="M332.41,150.13l38.38-30.42A13.48,13.48,0,0,0,390.35,106l-9.07,7.19-8.57-10.81,9.07-7.19a13.48,13.48,0,0,0-17.85,15.91l-38.38,30.42A13.47,13.47,0,0,0,306,155.22l9.07-7.19,8.57,10.81L314.56,166a13.47,13.47,0,0,0,17.85-15.9Z" class="cls-15"/></g></g></svg>