<svg xmlns="http://www.w3.org/2000/svg" viewBox="0 0 186 200"><defs><style>.cls-1{fill:#5c6bc0}.cls-2{fill:#3949ab}.cls-3{fill:#fff}.cls-4{fill:#aeb5e0}</style></defs><title>language-services</title><g id="Layer_2" data-name="Layer 2"><g id="Layer_1-2" data-name="Layer 1"><polygon points="92.8 0 92.8 0 92.8 0 0 33.3 14 156.1 92.8 200 92.8 200 92.8 200 171.7 156.1 186 33.3 92.8 0" class="cls-1"/><polygon points="92.8 0 92.8 22.2 92.8 22.2 92.8 123.2 92.8 123.2 92.8 200 92.8 200 171.7 156.1 186 33.3 92.8 0" class="cls-2"/><path d="M93,50a50,50,0,1,0,50,50A50,50,0,0,0,93,50Zm-5.3,80.3L68.9,111.5l6.7-6.7L86,115.2l24-38.8,8,5Z" class="cls-3"/><polygon points="86 115.2 75.6 104.8 68.9 111.5 87.7 130.3 118 81.4 110 76.4 86 115.2" class="cls-4"/></g></g></svg>