<svg xmlns="http://www.w3.org/2000/svg" viewBox="0 0 200 200"><defs><style>.cls-1{fill:#546e7a}.cls-2{fill:#455a64}.cls-3,.cls-4{fill:#fff}.cls-4{opacity:.5}</style></defs><title>libraries</title><g id="Layer_2" data-name="Layer 2"><g id="Layer_1-2" data-name="Layer 1"><path d="M0,100A100,100,0,0,0,100,200V0A100,100,0,0,0,0,100Z" class="cls-1"/><path d="M100,0V200A100,100,0,0,0,100,0Z" class="cls-2"/><path d="M25,63.3v75H58.3v-75Zm25,60H33.3V120H50ZM50,90H33.3V86.6H50Zm0-8.4H33.3V78.3H50Z" class="cls-3"/><rect width="16.7" height="4" x="33.3" y="77.9" class="cls-4"/><rect width="16.7" height="3.34" x="33.3" y="86.6" class="cls-4"/><rect width="16.7" height="3.34" x="33.3" y="120" class="cls-4"/><path d="M65,63.3v75H98.3v-75Zm25,60H73.3V120H90ZM90,90H73.3V86.6H90Zm0-8.4H73.3V78.3H90Z" class="cls-3"/><rect width="16.7" height="3.34" x="73.3" y="78.3" class="cls-4"/><rect width="16.7" height="3.34" x="73.3" y="86.6" class="cls-4"/><rect width="16.7" height="3.34" x="73.3" y="120" class="cls-4"/><path d="M98.3,85.3l53.1,53L175,114.7l-53.1-53ZM158.5,110l-11.8,11.8-2.3-2.3,11.8-11.8ZM134.9,86.4,123.1,98.2l-2.3-2.3,11.8-11.8ZM129,80.5,117.2,92.3,114.9,90l11.8-11.8Z" class="cls-3"/><rect width="16.7" height="3.34" x="113.6" y="83.6" class="cls-4" transform="translate(-24.6 111.2) rotate(-45)"/><rect width="16.7" height="3.34" x="119.5" y="89.5" class="cls-4" transform="translate(-27 117.1) rotate(-45)"/><rect width="16.7" height="3.34" x="143.1" y="113.1" class="cls-4" transform="translate(-36.8 140.7) rotate(-45)"/></g></g></svg>