<svg xmlns="http://www.w3.org/2000/svg" viewBox="0 0 200 200"><defs><style>.cls-1{fill:#546e7a}.cls-2{fill:#455a64}.cls-3{fill:#bbc5ca}.cls-4{fill:#fff}.cls-5{fill:none}</style></defs><title>performance</title><g id="Layer_2" data-name="Layer 2"><g id="Layer_1-2" data-name="Layer 1"><path d="M0,100A100,100,0,0,0,100,200V0A100,100,0,0,0,0,100Z" class="cls-1"/><path d="M100,0V200A100,100,0,0,0,100,0Z" class="cls-2"/><circle cx="100" cy="100" r="50" class="cls-3"/><circle cx="100" cy="100" r="8.33" class="cls-4"/><rect width="35.36" height="4.17" x="94.82" y="85.42" class="cls-4" transform="translate(-28.92 105.18) rotate(-45)"/><path d="M100,59.09A41,41,0,0,0,59.09,100h81.82A41,41,0,0,0,100,59.09Z" class="cls-5"/><path d="M100,140.91A41,41,0,0,0,140.91,100H59.09A41,41,0,0,0,100,140.91Z" class="cls-5"/><path d="M100,50a50,50,0,0,0-50,50h9.09a40.91,40.91,0,0,1,81.82,0H150A50,50,0,0,0,100,50Z" class="cls-4"/></g></g></svg>