<svg xmlns="http://www.w3.org/2000/svg" viewBox="0 0 186 200"><defs><style>.cls-1{fill:#00acc1}.cls-2{fill:#00838f}.cls-3{fill:#fff}.cls-4{fill:#80d6e0}</style></defs><title>universal</title><g id="Layer_2" data-name="Layer 2"><g id="Layer_1-2" data-name="Layer 1"><polygon points="92.8 0 92.8 0 92.8 0 0 33.3 14 156.1 92.8 200 92.8 200 92.8 200 171.7 156.1 186 33.3 92.8 0" class="cls-1"/><polygon points="92.8 0 92.8 22.2 92.8 22.2 92.8 123.2 92.8 123.2 92.8 200 92.8 200 171.7 156.1 186 33.3 92.8 0" class="cls-2"/><path d="M121,40H65A12,12,0,0,0,53,52v96a12,12,0,0,0,12,12h56a12,12,0,0,0,12-12V52A12,12,0,0,0,121,40ZM93,150a10,10,0,1,1,10-10A10,10,0,0,1,93,150Zm30-44a4,4,0,0,1-4,4H67a4,4,0,0,1-4-4V94a4,4,0,0,1,4-4h52a4,4,0,0,1,4,4Zm0-30a4,4,0,0,1-4,4H67a4,4,0,0,1-4-4V64a4,4,0,0,1,4-4h52a4,4,0,0,1,4,4Z" class="cls-3"/><rect width="60" height="20" x="63" y="60" class="cls-4" rx="4" ry="4"/><rect width="60" height="20" x="63" y="90" class="cls-4" rx="4" ry="4"/><circle cx="93" cy="140" r="10" class="cls-4"/></g></g></svg>