<svg xmlns="http://www.w3.org/2000/svg" xmlns:xlink="http://www.w3.org/1999/xlink" width="100%" height="100%" version="1.1" viewBox="0 0 600 445" xml:space="preserve" style="fill-rule:evenodd;clip-rule:evenodd;stroke-linecap:round;stroke-linejoin:round;stroke-miterlimit:1.5"><g id="NullInjector"><rect width="575.424" height="114.429" x="11.864" y="16.952" style="fill:#fff;stroke:#0159d3;stroke-width:3.81px"/><text x="208.488" y="67.96" style="font-family:'ArialMT','Arial',sans-serif;font-size:30.514px">NullInjector()</text><g><text x="286.27" y="212" style="font-family:'ArialMT','Arial',sans-serif;font-size:24px" transform="matrix(0.847458,0,0,0.847619,-81.3559,-80.5238)">always throws an error unless</text><text x="334.768" y="236.785" style="font-family:'ArialMT','Arial',sans-serif;font-size:24px" transform="matrix(0.847458,0,0,0.847619,-81.3559,-80.5238)">you use @Optional()</text></g></g><path d="M286.822,144.941l-7.161,0l11.017,-11.017l11.017,11.017l-7.161,0l0,38.992l-7.712,0l0,-38.992Z" style="fill:#0159d3;stroke:#0159d3;stroke-width:3.81px"/><path d="M286.822,297.512l-7.161,0l11.017,-11.017l11.017,11.017l-7.161,0l0,38.993l-7.712,0l0,-38.993Z" style="fill:#0159d3;stroke:#0159d3;stroke-width:3.81px"/><g id="Moduleinjector"><rect width="575.424" height="114.429" x="11.864" y="168.913" style="fill:#fff;stroke:#0159d3;stroke-width:3.81px"/><text x="215.313" y="211.956" style="font-family:'ArialMT','Arial',sans-serif;font-size:25.429px">ModuleInjector</text><g><text x="215.592" y="385" style="font-family:'ArialMT','Arial',sans-serif;font-size:24px" transform="matrix(0.847458,0,0,0.847619,-24.5763,-79.6762)">(conﬁgured by PlatformModule)</text><text x="74.879" y="409.785" style="font-family:'ArialMT','Arial',sans-serif;font-size:24px" transform="matrix(0.847458,0,0,0.847619,-24.5763,-79.6762)">has special things like DomSanitizer =&gt; platformBrowser()</text></g></g><g id="root"><rect width="577.966" height="113.581" x="10.599" y="320.428" style="fill:#fff;stroke:#0159d3;stroke-width:3.81px"/><g><text x="280.144" y="115" style="font-family:'Courier';font-size:30px" transform="matrix(0.847458,0,0,0.847619,-59.3163,262.743)">root</text><text x="370.158" y="115" style="font-family:'ArialMT','Arial',sans-serif;font-size:30px" transform="matrix(0.847458,0,0,0.847619,-59.3163,262.743)">ModuleInjector</text></g><g><text x="165.889" y="559" style="font-family:'ArialMT','Arial',sans-serif;font-size:24px" transform="matrix(0.847458,0,0,0.847619,15.5593,-82.219)">(conﬁgured by <tspan x="324.209 338.014 351.361" y="559 559 559">You</tspan>rAppModule)</text><text x="5.57" y="583.785" style="font-family:'ArialMT','Arial',sans-serif;font-size:24px" transform="matrix(0.847458,0,0,0.847619,15.5593,-82.219)">has things for your app =&gt; bootstrapModule(Y<tspan x="498.332 511.68" y="583.785 583.785">ou</tspan>rAppModule)</text></g></g></svg>